<?xml version="1.0" standalone="no"?>
<!DOCTYPE svg PUBLIC "-//W3C//DTD SVG 20010904//EN"
 "http://www.w3.org/TR/2001/REC-SVG-20010904/DTD/svg10.dtd">
<svg version="1.0" xmlns="http://www.w3.org/2000/svg"
 width="512.000000pt" height="512.000000pt" viewBox="0 0 512.000000 512.000000"
 preserveAspectRatio="xMidYMid meet">
<metadata>
Created by potrace 1.11, written by Peter Selinger 2001-2013
</metadata>
<g transform="translate(0.000000,512.000000) scale(0.100000,-0.100000)"
fill="#000000" stroke="none">
<path d="M843 5105 c-394 -72 -702 -359 -811 -754 l-27 -96 0 -1685 c0 -1556
1 -1691 17 -1762 76 -342 318 -621 644 -744 35 -13 73 -25 86 -28 13 -2 55
-11 93 -20 62 -13 269 -15 1735 -13 916 1 1679 6 1695 10 245 63 381 132 526
269 148 140 263 350 305 554 4 21 9 788 10 1704 3 1625 2 1667 -17 1759 -88
417 -408 730 -824 805 -114 20 -3320 21 -3432 1z m2187 -556 c61 -34 80 -71
81 -158 l1 -71 61 0 c335 -1 369 -6 450 -57 57 -36 95 -80 125 -143 l26 -55 1
-1609 c0 -1086 -3 -1626 -11 -1662 -20 -101 -115 -197 -229 -230 -55 -16 -134
-17 -980 -17 -866 -1 -923 0 -975 18 -103 34 -179 103 -217 196 -17 42 -18
129 -17 1674 l0 1630 26 55 c61 129 177 197 336 198 40 1 124 1 187 1 l115 1
0 71 c0 39 5 80 11 92 19 36 72 77 109 83 19 3 38 6 42 7 5 1 189 2 411 1
l403 0 44 -25z"/>
<path d="M1710 4002 c-7 -3 -10 -535 -10 -1572 l0 -1569 860 0 860 0 -2 1572
-3 1571 -848 1 c-466 0 -852 -1 -857 -3z m1545 -1641 c0 -722 -3 -1317 -6
-1322 -3 -5 -287 -8 -695 -7 l-689 3 0 1009 c0 658 3 1013 10 1021 6 7 89 48
185 90 96 42 193 85 215 95 22 10 236 105 475 210 239 106 446 198 460 206 14
7 29 12 35 10 6 -1 10 -471 10 -1315z"/>
</g>
</svg>
