<?xml version="1.0" standalone="no"?>
<!DOCTYPE svg PUBLIC "-//W3C//DTD SVG 20010904//EN"
 "http://www.w3.org/TR/2001/REC-SVG-20010904/DTD/svg10.dtd">
<svg version="1.0" xmlns="http://www.w3.org/2000/svg"
 width="512.000000pt" height="512.000000pt" viewBox="0 0 512.000000 512.000000"
 preserveAspectRatio="xMidYMid meet">
<metadata>
Created by potrace 1.11, written by Peter Selinger 2001-2013
</metadata>
<g transform="translate(0.000000,512.000000) scale(0.100000,-0.100000)"
fill="#000000" stroke="none">
<path d="M3265 4903 c-134 -13 -492 -76 -533 -93 -31 -13 -75 -48 -119 -93
-159 -161 -1151 -1279 -1157 -1303 -13 -50 15 -71 228 -174 110 -53 236 -112
279 -130 42 -19 77 -36 77 -39 0 -3 -210 -242 -466 -531 -256 -289 -470 -533
-476 -543 -22 -42 7 -57 381 -201 309 -119 359 -141 351 -155 -5 -9 -205 -308
-444 -665 -315 -470 -436 -658 -436 -678 0 -21 6 -29 26 -34 37 -9 565 61 644
85 36 11 87 35 115 52 105 67 1974 1490 1980 1508 14 44 21 39 -338 206 -145
67 -166 80 -155 93 7 8 196 216 421 461 224 245 407 452 407 461 0 27 -24 43
-240 156 -113 59 -207 108 -208 110 -2 1 208 242 467 535 259 292 471 540 471
549 0 9 -8 24 -17 32 -10 9 -247 97 -528 196 -469 166 -606 206 -672 200 -10
-1 -36 -3 -58 -5z m-20 -363 c270 -95 491 -174 493 -175 2 -2 -206 -240 -463
-530 -392 -443 -466 -531 -463 -553 3 -23 29 -39 221 -140 119 -63 217 -118
217 -122 0 -3 -185 -208 -410 -454 -226 -246 -414 -455 -419 -464 -20 -39 3
-55 243 -167 130 -60 237 -114 237 -119 0 -4 -262 -207 -583 -450 -321 -242
-704 -533 -853 -646 -170 -129 -263 -193 -251 -175 11 17 182 271 380 565 234
348 361 546 364 567 3 24 -1 34 -17 43 -12 6 -173 70 -359 141 -185 72 -340
133 -344 137 -4 4 202 244 458 532 256 289 469 532 474 540 20 39 -4 55 -309
195 l-300 138 32 37 c147 170 1151 1279 1156 1276 3 -2 227 -81 496 -176z"/>
</g>
</svg>
